<?xml version="1.0" encoding="UTF-8" standalone="no"?><!DOCTYPE svg PUBLIC "-//W3C//DTD SVG 1.1//EN" "http://www.w3.org/Graphics/SVG/1.1/DTD/svg11.dtd"><svg width="100%" height="100%" viewBox="0 0 481 481" version="1.1" xmlns="http://www.w3.org/2000/svg" xmlns:xlink="http://www.w3.org/1999/xlink" xml:space="preserve" xmlns:serif="http://www.serif.com/" style="fill-rule:evenodd;clip-rule:evenodd;stroke-miterlimit:2;"><rect id="electrical-equipment" serif:id="electrical equipment" x="0" y="0" width="480.954" height="480.954" style="fill:none;"/><path d="M183.496,190.833l12.512,-7.633l13.421,0m-25.933,20.063l12.512,-6.555l13.421,0m-25.933,16.075l12.512,-2.579l13.421,0m-25.933,13.279l25.933,0m-25.933,62.246l12.512,7.633l13.421,0m-25.933,-20.062l12.512,6.55l13.421,0m-25.933,-16.067l12.512,2.575l13.421,0m-25.933,-13.279l25.933,0m109.9,-62.246l-12.508,-7.633l-13.425,0m25.933,20.063l-12.508,-6.555l-13.425,0m25.933,16.075l-12.508,-2.579l-13.425,0m25.933,13.279l-25.933,0m25.933,62.246l-12.508,7.633l-13.425,0m25.933,-20.062l-12.508,6.55l-13.425,0m25.933,-16.067l-12.508,2.575l-13.425,0m25.933,-13.279l-25.933,0m-40.692,-93.125l0,156.275m-77.171,-198.908l15.501,0.062l-25.863,40.45l-14.237,0l8.337,-26.183l-17.733,-0.008l15.208,-41.109l29.142,0l-10.355,26.788Zm-44.187,75.433l0,79.442m10.183,-79.442l0,71.896m28.679,1.142l-13.541,-0l-0,27.046l-9.188,-2.113l0,-7.85l-22.12,0l-0,7.85l-9.196,2.113l-0,-110.05l9.196,2.112l-0,7.85l22.12,0l0,-7.85l9.188,-2.112l-0,27.045l13.541,0m194.584,0.888l-0,10.608m-0,5.55l-0,10.609m-22.083,-34.596l12.887,-0l0,42.425l-12.887,-0l-0,39.812l-9.592,1.121l-0,3.154l-22.479,20.217l-22.238,-0l0,12.537c0,1.234 -1.017,2.25 -2.246,2.25l-24.841,0l-0,-8.179l-17.221,0l-0,8.179l-24.842,0c-1.225,0 -2.246,-1.012 -2.246,-2.25l0,-12.537l-20.979,-0l-23.737,-20.217l-0,-103.183l23.737,-20.213l20.979,0l0.004,-11.083c0.03,-1.204 1.03,-2.183 2.242,-2.183l24.842,-0l-0,7.212l17.221,0l-0,-7.212l24.841,-0c1.209,-0 2.213,0.979 2.242,2.183l0.004,11.083l22.238,0l22.479,20.213l-0,5.804l9.592,1.121l-0,9.746Z" style="fill:none;stroke:#010026;stroke-width:5.91px;"/></svg>