<?xml version="1.0" encoding="UTF-8" standalone="no"?><!DOCTYPE svg PUBLIC "-//W3C//DTD SVG 1.1//EN" "http://www.w3.org/Graphics/SVG/1.1/DTD/svg11.dtd"><svg width="100%" height="100%" viewBox="0 0 481 481" version="1.1" xmlns="http://www.w3.org/2000/svg" xmlns:xlink="http://www.w3.org/1999/xlink" xml:space="preserve" xmlns:serif="http://www.serif.com/" style="fill-rule:evenodd;clip-rule:evenodd;stroke-miterlimit:2;"><rect id="Gearbox-repair" serif:id="Gearbox repair" x="0" y="0" width="480.954" height="480.954" style="fill:none;"/><path d="M319.525,242.204l4.767,0m-77.859,0l4.763,0m68.329,-19.937l4.767,-0m-77.859,-0l4.763,-0m-10.096,-10.017l86.933,0c3.13,0 5.692,2.558 5.692,5.687l0,28.78c0,3.129 -2.562,5.687 -5.692,5.687l-86.933,0m81.279,17.388l-82.966,-0m-0,-74.109l-0,95.321m-34.334,-109.879l0,120.667m-34.104,-136.834l0,144.175m-37.367,-12.375l105.613,-26.916m-105.613,-4.904l105.613,-9.792m-105.613,-43.934l105.613,14.342m-105.613,13.021l104.717,2.275m-104.717,-61.2l105.613,32.6m-107,-62.1l-0,168.462m-26.9,-102.083l-0,34.379m255.058,-35.32l0,36.424m-120.733,-56.483l111.817,0c4.9,0 8.916,4.021 8.916,8.917l0,11.142l26.659,7.237l-0,21.946l-26.659,7.237l0,8.863c0,4.892 -4.029,8.921 -8.916,8.921l-29.084,-0l-2.221,5.129c-3.454,7.958 -8.312,16.083 -15.654,16.083l-65.091,0l-107.192,27.608l-26.9,0l-0,-67.704l-11.404,0l-0,-33.05l11.404,0l-0,-67.708l26.9,0l107.425,45.379Zm-0,-2.054l-0,-8.763c-0,-1.412 1.158,-2.691 2.567,-2.57l69.479,5.87m-57.013,-29.212l2.2,-8.875c0.279,-1.121 1.425,-1.9 2.525,-1.554l42.859,13.612l11.608,31.492m-67.221,-23.375l1.85,-9.821c0.258,-1.387 1.575,-2.5 2.938,-2.137l54.745,14.483m-63.379,8.096l0.792,-8.429c0.129,-1.409 1.354,-1.446 2.75,-1.238l62.721,9.388m-22.759,-23.984l7.134,-27.795c4.221,-0.234 8.016,-3.184 9.096,-7.496l3.733,-14.85c0.662,-2.646 -0.963,-5.359 -3.604,-6.021l-15.209,-3.821c-2.65,-0.663 -5.362,0.958 -6.02,3.604l-3.734,14.854c-1.012,4.042 0.646,8.167 3.842,10.479l-7.192,28.046" style="fill:none;stroke:#010026;stroke-width:5.91px;"/></svg>