<?xml version="1.0" encoding="UTF-8" standalone="no"?><!DOCTYPE svg PUBLIC "-//W3C//DTD SVG 1.1//EN" "http://www.w3.org/Graphics/SVG/1.1/DTD/svg11.dtd"><svg width="100%" height="100%" viewBox="0 0 481 481" version="1.1" xmlns="http://www.w3.org/2000/svg" xmlns:xlink="http://www.w3.org/1999/xlink" xml:space="preserve" xmlns:serif="http://www.serif.com/" style="fill-rule:evenodd;clip-rule:evenodd;stroke-miterlimit:2;"><rect id="running-gear-and-brake-system" serif:id="running gear and brake system" x="0" y="0" width="480.954" height="480.954" style="fill:none;"/><path d="M218.14,201.637c29.233,-15.25 51.192,-32.833 59.233,-54.9m-57.437,147.371c-27.817,-17.692 -54.025,-27.912 -77.158,-23.846m130.55,22.809c-29.625,15.454 -51.78,33.308 -59.55,55.795m85.345,-102.55c-1.412,32.992 2.854,60.838 18.005,78.834m-45.596,-124.55c27.996,17.804 54.358,28.041 77.596,23.766m-214.659,20.867c1.579,1.45 4.034,1.342 5.484,-0.237c1.445,-1.584 1.341,-4.042 -0.238,-5.492c-1.587,-1.446 -4.042,-1.338 -5.492,0.242c-1.445,1.583 -1.337,4.041 0.246,5.487Zm22.225,-79.192c1.588,1.446 4.042,1.342 5.492,-0.241c1.446,-1.584 1.337,-4.042 -0.246,-5.488c-1.579,-1.45 -4.037,-1.341 -5.483,0.242c-1.45,1.583 -1.346,4.042 0.237,5.487Zm77.067,-29.316c1.579,1.45 4.042,1.341 5.487,-0.242c1.446,-1.583 1.338,-4.041 -0.241,-5.492c-1.584,-1.441 -4.042,-1.333 -5.488,0.246c-1.45,1.584 -1.341,4.042 0.242,5.488Zm-63.342,96.941l-11.533,3.642c-10.871,6.496 -6.229,7.117 -12.296,13.754c-4.796,5.246 -12.95,5.613 -18.196,0.809c-4.841,-4.43 -5.521,-11.717 -1.816,-16.938c-7.88,-8.25 -2.459,-35.437 3.17,-44.033c2.125,-3.25 3.763,-4.725 7.355,-6.338c15.516,-6.941 6.125,-18.241 9.595,-25.5c1.555,-3.25 4.309,-6.254 7.409,-8.091c6.858,-4.063 19.037,4.171 24.55,-11.821c1.287,-3.717 2.612,-5.479 5.662,-7.884c8.042,-6.349 34.671,-14.17 43.559,-7.075c4.866,-4.295 12.304,-4.316 17.2,0.171c5.241,4.8 5.604,12.946 0.804,18.192c-6.075,6.642 -7.267,2.258 -12.759,13.625l-2.55,11.75c-20.362,22.254 -39.687,43.371 -60.154,65.737Zm88.163,-98.35c34.175,3.984 66.104,23.513 84.629,55.6c31.117,53.9 12.65,122.817 -41.25,153.942c-53.9,31.113 -122.821,12.65 -153.938,-41.25c-7.291,-12.629 -11.862,-26.087 -13.891,-39.683m84.783,-62.917c25.546,-14.746 58.204,-5.992 72.954,19.55c14.746,25.542 5.992,58.2 -19.55,72.95c-25.541,14.746 -58.208,6 -72.954,-19.546c-14.746,-25.546 -5.992,-58.204 19.55,-72.954Zm17.442,30.213c8.858,-5.113 20.179,-2.08 25.3,6.779c5.112,8.858 2.083,20.187 -6.779,25.3c-8.859,5.116 -20.188,2.079 -25.3,-6.779c-5.113,-8.863 -2.08,-20.184 6.779,-25.3Zm-12.3,-21.305c3.704,-2.137 8.441,-0.87 10.579,2.838c2.137,3.704 0.871,8.437 -2.833,10.579c-3.709,2.138 -8.442,0.871 -10.58,-2.837c-2.141,-3.705 -0.87,-8.438 2.834,-10.58Zm51.75,6.555c3.054,2.995 3.104,7.9 0.108,10.954c-2.996,3.054 -7.904,3.104 -10.954,0.104c-3.054,-2.992 -3.108,-7.896 -0.108,-10.954c2.991,-3.054 7.895,-3.1 10.954,-0.104Zm10.162,45.995c-1.512,4.005 -5.979,6.025 -9.979,4.517c-4.004,-1.504 -6.025,-5.971 -4.517,-9.979c1.509,-4 5.975,-6.025 9.979,-4.513c4.005,1.505 6.026,5.971 4.517,9.975Zm-47.308,27.355c-4.225,-0.692 -7.088,-4.671 -6.396,-8.896c0.688,-4.225 4.671,-7.084 8.896,-6.392c4.221,0.692 7.079,4.671 6.392,8.888c-0.688,4.22 -4.671,7.091 -8.892,6.4Zm-34.792,-31.75c-1.071,-4.142 1.421,-8.367 5.559,-9.438c4.145,-1.075 8.366,1.413 9.441,5.554c1.071,4.142 -1.416,8.371 -5.558,9.438c-4.142,1.075 -8.367,-1.409 -9.442,-5.554Z" style="fill:none;stroke:#010026;stroke-width:5.91px;"/></svg>