<?xml version="1.0" encoding="UTF-8" standalone="no"?><!DOCTYPE svg PUBLIC "-//W3C//DTD SVG 1.1//EN" "http://www.w3.org/Graphics/SVG/1.1/DTD/svg11.dtd"><svg width="100%" height="100%" viewBox="0 0 481 481" version="1.1" xmlns="http://www.w3.org/2000/svg" xmlns:xlink="http://www.w3.org/1999/xlink" xml:space="preserve" xmlns:serif="http://www.serif.com/" style="fill-rule:evenodd;clip-rule:evenodd;stroke-miterlimit:2;"><rect id="Camber-convergence" serif:id="Camber convergence" x="0" y="0" width="480.954" height="480.954" style="fill:none;"/><path d="M110.21,293.943l89.126,-0m-23.071,42.716l-0,8.275l23.071,-16.546l-23.071,-16.545l-0,8.275l-42.983,-0l-0,-8.275l-23.072,16.545l23.072,16.546l-0,-8.275l42.983,0Zm105.354,-42.716l89.125,-0m-23.071,42.716l0,8.275l23.071,-16.546l-23.071,-16.545l0,8.275l-42.983,-0l-0,-8.275l-23.071,16.545l23.071,16.546l-0,-8.275l42.983,0Zm-14.646,-138.141l-31.304,3.779c-3.975,0.475 -7.283,3.462 -7.283,7.366l-0,5.68c-0,1.108 0.937,1.991 2.079,1.95l31.304,-1.142c4.583,-0.167 8.325,-3.95 8.325,-8.417l0,-6.287c0,-1.675 -1.421,-3.134 -3.121,-2.929Zm-184.996,-0l31.309,3.779c3.979,0.475 7.283,3.466 7.283,7.366l0,5.68c0,1.108 -0.942,1.991 -2.079,1.95l-31.304,-1.142c-4.575,-0.162 -8.325,-3.95 -8.325,-8.417l-0,-6.287c-0,-1.675 1.412,-3.134 3.116,-2.929Zm14.93,-17.204c-2.013,0.274 -2.259,-1.08 -1.513,-2.105l23.871,-28.929c1.046,-1.258 2.191,-1.946 3.875,-2.141c42.367,-2.792 60.471,-2.48 102.675,-0c1.679,0.195 2.829,0.883 3.879,2.141l23.863,28.929c0.754,1.025 0.5,2.379 -1.505,2.105c-59.779,-2.984 -95.375,-3.284 -155.145,-0Zm22.854,-43.28c-4.271,0.53 -6.534,2.884 -7.575,4.125l-19.534,23.38l-22.67,-0c-2.563,-0 -5.255,2.054 -5.946,4.562l-2.063,7.496c-0.27,0.987 0.433,1.408 1.371,1.825l12.913,5.725l-5.246,6.275c-3.192,3.941 -4.775,9.183 -4.655,15.804l0,62.867c0,2.55 2.159,4.666 4.801,4.666l35.125,0c2.641,0 4.8,-2.1 4.8,-4.666l-0,-12.284l126.791,0l0,12.284c0,2.558 2.159,4.666 4.8,4.666l35.125,0c2.638,0 4.796,-2.1 4.796,-4.666l0,-62.867c0.121,-6.621 -1.462,-11.863 -4.646,-15.804l-5.25,-6.275l12.913,-5.725c0.937,-0.417 1.646,-0.821 1.371,-1.825l-2.063,-7.496c-0.687,-2.508 -3.371,-4.562 -5.946,-4.562l-22.675,-0l-19.533,-23.38c-1.033,-1.241 -3.304,-3.595 -7.567,-4.125c-42.733,-2.629 -66.708,-2.741 -109.437,0Z" style="fill:none;stroke:#010026;stroke-width:5.91px;"/></svg>