<?xml version="1.0" encoding="UTF-8" standalone="no"?><!DOCTYPE svg PUBLIC "-//W3C//DTD SVG 1.1//EN" "http://www.w3.org/Graphics/SVG/1.1/DTD/svg11.dtd"><svg width="100%" height="100%" viewBox="0 0 481 481" version="1.1" xmlns="http://www.w3.org/2000/svg" xmlns:xlink="http://www.w3.org/1999/xlink" xml:space="preserve" xmlns:serif="http://www.serif.com/" style="fill-rule:evenodd;clip-rule:evenodd;stroke-miterlimit:2;"><rect id="Engine-repair" serif:id="Engine repair" x="0" y="0" width="480.954" height="480.954" style="fill:none;"/><path d="M173.175,266.881c7.78,0 14.084,6.305 14.084,14.079c-0,7.771 -6.304,14.076 -14.084,14.076c-7.77,-0 -14.075,-6.305 -14.075,-14.076c0,-7.774 6.305,-14.079 14.075,-14.079Zm131.134,15.663c8.958,-0 16.221,7.262 16.221,16.221c-0,8.962 -7.263,16.225 -16.221,16.225c-8.963,-0 -16.225,-7.263 -16.225,-16.225c-0,-8.959 7.262,-16.221 16.225,-16.221Zm-0,-46.496c8.783,-0 15.9,7.117 15.9,15.9c-0,8.783 -7.117,15.904 -15.9,15.904c-8.788,0 -15.904,-7.121 -15.904,-15.904c-0,-8.783 7.116,-15.9 15.904,-15.9Zm-63.85,31.833c8.783,0 15.9,7.121 15.9,15.9c-0,8.784 -7.117,15.904 -15.9,15.904c-8.784,0 -15.9,-7.12 -15.9,-15.904c-0,-8.779 7.116,-15.9 15.9,-15.9Zm-0,-64.075c4.508,0 8.166,3.655 8.166,8.167c0,4.508 -3.658,8.163 -8.166,8.163c-4.509,-0 -8.167,-3.655 -8.167,-8.163c0,-4.512 3.658,-8.167 8.167,-8.167Zm-89.6,-48.754l1.196,-5.562c0.383,-1.792 1.712,-2.58 3.466,-3.33c8.667,-3.704 34.934,-10.7 45.171,-10.954c1.533,-0.041 2.788,0.8 3.138,2.513l4.545,22.229c0.521,2.538 2.121,4.721 4.717,4.721l54.767,-0c2.596,-0 4.2,-2.183 4.716,-4.721l4.546,-22.229c0.35,-1.713 1.604,-2.554 3.138,-2.513c10.237,0.254 36.508,7.25 45.171,10.954c1.754,0.75 3.083,1.538 3.466,3.33l1.192,5.562m-124.954,-15.433l70.683,-0m-51.604,-1.158l-0,-9.005c-0,-1.108 0.912,-2.016 2.021,-2.016l28.483,-0c1.113,-0 2.021,0.916 2.021,2.016l-0,9.005m77.004,55.387l22.721,20.021l-9.721,12.104l-3.804,-0.396l-9.838,13.829l0,61.625c0.163,13.054 -9.841,23.75 -22.337,25.75l-28.404,4.546l-83.767,0c-3.979,0 -7.267,-1.875 -8.287,-5.883l-5.18,-14.959l-29.512,-2.733c-4.558,-0.421 -8.333,-3.746 -8.333,-8.329l-0,-33.575c-0,-4.583 3.841,-7.417 8.333,-8.329l-2.083,-12.621l-15.517,-19.321l-3.804,0.396l-9.721,-12.104l22.721,-20.021m-22.567,23.483l-10.442,-12.808c-0.891,-1.2 -1.45,-2.546 -1.479,-4.112l-0.246,-7.913c-0.029,-1.013 0.196,-1.962 1.055,-2.842l8.837,-9.108l-0.771,-1.717c-0.312,-0.696 -0.446,-1.454 0.125,-1.958l11.246,-9.896c0.575,-0.504 1.313,-0.271 1.963,0.129l1.604,0.98l11.841,-10.417c1.146,-1.008 2.684,-0.65 3.921,0.25c9.321,6.804 18.684,13.258 28.313,19.633c1.733,1.183 3.616,1.704 5.591,1.817l108.55,-0c1.975,-0.113 3.859,-0.634 5.592,-1.817c9.629,-6.375 18.992,-12.829 28.313,-19.633c1.233,-0.9 2.775,-1.258 3.92,-0.25l11.846,10.417l1.6,-0.98c0.654,-0.4 1.388,-0.633 1.959,-0.129l11.25,9.896c0.57,0.504 0.437,1.262 0.125,1.958l-0.771,1.717l8.837,9.108c0.854,0.88 1.084,1.829 1.059,2.842l-0.25,7.913c-0.025,1.566 -0.588,2.912 -1.48,4.112l-10.02,13.121m-78.584,113.854l-2.862,15.179c-0.654,3.709 -3.229,6.838 -7.167,6.838l-55.283,-0c-3.938,-0 -6.513,-3.129 -7.167,-6.838l-2.862,-15.179m-9.959,-103.992c4.163,0 7.534,3.371 7.534,7.534c-0,4.162 -3.371,7.537 -7.534,7.537c-4.162,0 -7.537,-3.375 -7.537,-7.537c-0,-4.163 3.375,-7.534 7.537,-7.534Zm-17.641,39.704l37.387,-6.92m-0.983,46.054l-37.571,-11.588m121.925,17.209l-32.525,0.004m53.375,-49.904l-0.004,27.341m-58.534,-87.383l49.125,34.142m-3.091,10.291c3.033,0 5.491,2.459 5.491,5.492c0,3.033 -2.458,5.496 -5.491,5.496c-3.038,-0 -5.496,-2.463 -5.496,-5.496c-0,-3.033 2.458,-5.492 5.496,-5.492Zm-0,45.813c3.587,-0 6.496,2.904 6.496,6.496c-0,3.587 -2.909,6.5 -6.496,6.5c-3.592,-0 -6.5,-2.913 -6.5,-6.5c-0,-3.592 2.908,-6.496 6.5,-6.496Zm-131.129,-16.154c2.675,-0 4.845,2.171 4.845,4.845c0,2.676 -2.17,4.846 -4.845,4.846c-2.675,0 -4.846,-2.17 -4.846,-4.846c-0,-2.674 2.171,-4.845 4.846,-4.845Zm32.187,-2.213l15.492,-67.775m39.283,0.271l15.4,67.479m-35.083,-82.304c11.262,0 20.404,9.129 20.404,20.4c-0,11.263 -9.142,20.396 -20.404,20.396c-11.267,-0 -20.404,-9.133 -20.404,-20.396c-0,-11.271 9.137,-20.4 20.404,-20.4Zm-0.004,55.758c20.133,0 36.445,16.321 36.445,36.446c0,20.138 -16.312,36.454 -36.445,36.454c-20.125,0 -36.442,-16.316 -36.442,-36.454c-0,-20.125 16.317,-36.446 36.442,-36.446Z" style="fill:none;stroke:#010026;stroke-width:5.91px;"/></svg>