<?xml version="1.0" encoding="UTF-8" standalone="no"?>
<!DOCTYPE svg PUBLIC "-//W3C//DTD SVG 1.1//EN" "http://www.w3.org/Graphics/SVG/1.1/DTD/svg11.dtd">
<svg width="100%" height="100%" viewBox="0 0 481 481" version="1.1" xmlns="http://www.w3.org/2000/svg" xmlns:xlink="http://www.w3.org/1999/xlink" xml:space="preserve" xmlns:serif="http://www.serif.com/" style="fill-rule:evenodd;clip-rule:evenodd;stroke-miterlimit:2;">
    <g transform="matrix(1,0,0,1,-6670,-1661)">
        <g id="Refueling-air-conditioners" serif:id="Refueling air conditioners" transform="matrix(1,0,0,1,488.954,413)">
            <rect x="6181.05" y="1248" width="480.954" height="480.954" style="fill:none;"/>
            <g transform="matrix(4.16667,0,0,4.16667,6214.83,-428.994)">
                <path d="M23.831,479.646L75.381,479.646M63.837,475.919L75.381,475.919M23.831,475.919L35.373,475.919M65.631,472.194L75.381,472.194M23.831,472.194L33.67,472.194M65.726,468.468L75.381,468.468M23.831,468.468L33.33,468.468M63.767,464.742L75.381,464.742M23.831,464.742L34.319,464.742M64.406,461.016L75.381,461.016M23.831,461.016L35.86,461.016M65.787,457.29L75.381,457.29M23.831,457.29L33.713,457.29M65.731,453.564L75.381,453.564M23.831,453.564L33.407,453.564M64.239,449.838L75.381,449.838M23.831,449.838L34.952,449.838M23.831,446.112L75.381,446.112M49.922,458.378C50.835,457.091 50.89,454.401 51.168,453.147C52.374,447.726 58.551,446.489 62.244,450.246C64.949,452.996 64.677,457.882 63.112,460.335C61.914,462.213 59.595,462.391 58.11,460.837C57.759,460.47 57.47,460.032 57.212,459.567C56.54,458.357 55.798,458.043 54.894,458.598C54.266,458.982 53.529,459.745 53.391,460.535C53.71,461.078 53.916,461.698 53.976,462.368C53.997,462.605 53.998,462.84 53.982,463.071C55.269,463.984 57.96,464.039 59.213,464.317C64.634,465.522 65.872,471.7 62.115,475.393C59.364,478.098 54.479,477.826 52.024,476.261C50.147,475.063 49.969,472.744 51.523,471.259C51.89,470.909 52.329,470.619 52.793,470.361C54.003,469.689 54.317,468.947 53.762,468.042C53.378,467.415 52.616,466.678 51.826,466.54C51.283,466.859 50.662,467.065 49.993,467.124C49.755,467.146 49.52,467.147 49.289,467.13C48.376,468.417 48.322,471.108 48.043,472.363C46.838,477.783 40.661,479.021 36.968,475.263C34.263,472.513 34.535,467.627 36.099,465.173C37.297,463.295 39.617,463.118 41.101,464.671C41.452,465.039 41.741,465.477 42,465.942C42.671,467.152 43.414,467.465 44.318,466.911C44.946,466.527 45.683,465.764 45.82,464.975C45.502,464.432 45.295,463.811 45.236,463.142C45.215,462.904 45.213,462.668 45.23,462.438C43.942,461.525 41.252,461.47 39.998,461.192C34.578,459.987 33.339,453.81 37.097,450.117C39.847,447.412 44.733,447.683 47.187,449.249C49.065,450.446 49.243,452.766 47.689,454.25C47.322,454.6 46.883,454.89 46.418,455.149C45.208,455.82 44.895,456.562 45.449,457.467C45.833,458.095 46.596,458.832 47.385,458.969C47.929,458.651 48.549,458.444 49.219,458.384C49.456,458.364 49.692,458.363 49.922,458.378ZM49.429,460.759C50.531,460.663 51.503,461.476 51.601,462.578C51.698,463.679 50.884,464.652 49.783,464.749C48.681,464.847 47.709,464.033 47.611,462.932C47.513,461.83 48.328,460.858 49.429,460.759ZM30.849,440.614L21.72,440.614C20.449,440.614 19.41,441.653 19.41,442.923L19.41,482.034C19.41,483.305 20.45,484.344 21.72,484.344L77.491,484.344C78.761,484.344 79.802,483.304 79.802,482.034L79.802,442.923C79.802,441.656 78.762,440.614 77.491,440.614L33.369,440.614L33.369,438.517L34.882,438.517L34.882,436.604C34.882,436.296 34.629,436.042 34.321,436.042L23.214,436.042C22.906,436.042 22.653,436.295 22.653,436.604L22.653,438.517L24.259,438.517L24.259,439.621" style="fill:none;stroke:rgb(1,0,38);stroke-width:1.42px;"/>
            </g>
        </g>
    </g>
</svg>
