<?xml version="1.0" encoding="UTF-8" standalone="no"?><!DOCTYPE svg PUBLIC "-//W3C//DTD SVG 1.1//EN" "http://www.w3.org/Graphics/SVG/1.1/DTD/svg11.dtd"><svg width="100%" height="100%" viewBox="0 0 481 481" version="1.1" xmlns="http://www.w3.org/2000/svg" xmlns:xlink="http://www.w3.org/1999/xlink" xml:space="preserve" xmlns:serif="http://www.serif.com/" style="fill-rule:evenodd;clip-rule:evenodd;stroke-miterlimit:2;"><rect id="Locksmith-repair" serif:id="Locksmith repair" x="0" y="0" width="480.954" height="480.954" style="fill:none;"/><path d="M219.638,270.994l0,-71.354c0.167,-3.171 -1.266,-4.746 -4.216,-4.8c-24.88,0.058 -57.738,3.225 -74.921,23.975c-1.93,2.258 -2.355,5.396 -2.229,8.262l0.475,10.371c1.1,4.717 6.187,4.8 9.987,6.267c15.267,5.916 25.046,16.5 32.742,28.871c2.829,4.566 6.716,6.016 11.983,6.016l17.35,0c5.217,-0.683 8.288,-3.112 8.829,-7.608Zm8.7,-71.092l2.079,71.221c0.359,4.633 2.871,7.008 7.205,7.479l62.254,0c5.266,-0.579 8.308,-4.125 8.554,-11.371l-0,-35.254c0.091,-4.133 -0.813,-6.654 -3.625,-8.654l-23.088,-18.425c-5.05,-4.033 -9.35,-6.212 -15.6,-6.954c-11.021,-1.292 -22.983,-1.767 -34.137,-2.604c-2.517,-0.029 -3.813,1.391 -3.642,4.562Zm176.675,92.663l-21.016,1.7l-0,-3.688c-0,-18.171 -14.734,-32.904 -32.905,-32.904c-18.175,0 -32.912,14.733 -32.912,32.904l-0,3.734l-149.233,-0l-0,-3.734c-0,-18.171 -14.734,-32.904 -32.905,-32.904c-18.175,0 -32.908,14.733 -32.908,32.904l-0,3.734l-26.671,-0c-2.608,-0.455 -4.846,-1.871 -6.642,-4.28c-0.162,-0.225 -1.104,-11.27 -1.929,-21.879c-0.054,-0.65 3.054,-3.516 3,-4.166c-0.133,-6.217 -0.029,-12.1 0.371,-17.9l11.546,-0.309c1.279,-0.037 2.417,-1.108 2.537,-2.391l0.88,-9.513c0.12,-1.279 -0.825,-2.3 -2.1,-2.262l-11.28,0.3c0.184,-1.205 0.384,-2.413 0.6,-3.63c0.825,-4.695 4.567,-6.737 9.038,-7.429l35.533,-3.241c25.346,-17.83 44.005,-27.025 74.821,-30.042c18.504,-1.813 52.2,-0.804 73.054,1.654c7.196,0.846 13.604,3.108 19.813,6.779l33.441,19.763c4.417,2.504 8.846,4.041 13.263,5.383l56.667,9.975c6.096,1.65 11.525,3.634 15.862,6.154c2.875,1.925 4.171,4.184 4.725,6.746l-17.791,-1.162c-1.076,-0.071 -1.555,0.741 -1.38,1.87l1.246,8.159c0.171,1.133 1.45,2.058 2.529,2.129l15.459,1.008c-0.121,2.846 -0.225,2.55 -0.6,6.459l3.012,2.116c0.792,1.421 1.054,3.221 0.867,5.342l-0.963,15.679c-0.491,3.613 -3.187,6.254 -7.029,6.942Z" style="fill:none;stroke:#010026;stroke-width:5.91px;"/></svg>