<?xml version="1.0" encoding="UTF-8" standalone="no"?>
<!DOCTYPE svg PUBLIC "-//W3C//DTD SVG 1.1//EN" "http://www.w3.org/Graphics/SVG/1.1/DTD/svg11.dtd">
<svg width="100%" height="100%" viewBox="0 0 481 481" version="1.1" xmlns="http://www.w3.org/2000/svg" xmlns:xlink="http://www.w3.org/1999/xlink" xml:space="preserve" xmlns:serif="http://www.serif.com/" style="fill-rule:evenodd;clip-rule:evenodd;stroke-miterlimit:2;">
    <g transform="matrix(1,0,0,1,-8621.05,-1661)">
        <g id="tire-fitting" serif:id="tire fitting" transform="matrix(1,0,0,1,2440,413)">
            <rect x="6181.05" y="1248" width="480.954" height="480.954" style="fill:none;"/>
            <g transform="matrix(4.16667,0,0,4.16667,5787.33,-428.996)">
                <path d="M149.227,431.839C164.887,430.194 178.916,441.554 180.561,457.213C182.207,472.874 170.846,486.903 155.187,488.548C139.527,490.194 125.498,478.833 123.852,463.173C122.207,447.513 133.567,433.485 149.227,431.839ZM150.076,439.921C161.272,438.745 171.303,446.867 172.479,458.063C173.656,469.259 165.533,479.29 154.337,480.466C143.141,481.643 133.111,473.52 131.934,462.324C130.757,451.127 138.88,441.097 150.076,439.921ZM136.183,458.081C138.921,458.1 141.659,458.12 144.397,458.143C146.354,458.16 148.559,455.552 147.932,453.562C147.076,450.847 146.22,448.133 145.362,445.419C144.767,445.013 144.105,444.559 143.363,444.989C139.208,447.399 136.221,451.43 135.1,456.099C134.847,457.151 135.447,457.57 136.183,458.081ZM145.275,474.803L147.789,467.204C148.5,465.062 146.775,462.24 144.449,462.225C141.649,462.207 138.849,462.191 136.048,462.174C135.477,462.617 134.837,463.107 135.02,463.948C136.042,468.642 138.964,472.72 143.064,475.218C143.982,475.777 144.565,475.34 145.275,474.803ZM149.137,476.167C149.382,476.85 149.653,477.615 150.513,477.699C155.279,478.165 160.084,476.617 163.704,473.493C164.492,472.812 164.29,472.15 164.023,471.321C161.838,469.709 159.651,468.101 157.461,466.496C155.777,465.262 152.483,465.995 151.804,468.059C150.915,470.762 150.026,473.465 149.137,476.167ZM166.45,452.565L159.734,457.306C157.972,458.55 157.931,461.891 159.662,463.186C161.903,464.865 164.146,466.54 166.393,468.211C167.107,468.189 167.898,468.165 168.246,467.393C170.209,463.026 170.283,457.978 168.48,453.548C168.074,452.549 167.344,452.557 166.45,452.565ZM149.301,444.316L151.75,452.112C152.443,454.32 155.606,455.231 157.499,453.891C159.721,452.318 161.942,450.745 164.165,449.17C164.372,448.477 164.608,447.703 163.968,447.124C160.398,443.906 155.645,442.302 150.86,442.661C149.774,442.743 149.563,443.455 149.301,444.316ZM151.821,456.525C153.847,456.312 155.662,457.782 155.875,459.808C156.087,461.834 154.618,463.65 152.592,463.862C150.565,464.076 148.75,462.605 148.538,460.58C148.324,458.553 149.794,456.738 151.821,456.525Z" style="fill:none;stroke:rgb(1,0,38);stroke-width:1.42px;"/>
            </g>
        </g>
    </g>
</svg>
