<?xml version="1.0" encoding="UTF-8" standalone="no"?>
<!DOCTYPE svg PUBLIC "-//W3C//DTD SVG 1.1//EN" "http://www.w3.org/Graphics/SVG/1.1/DTD/svg11.dtd">
<svg width="100%" height="100%" viewBox="0 0 481 481" version="1.1" xmlns="http://www.w3.org/2000/svg" xmlns:xlink="http://www.w3.org/1999/xlink" xml:space="preserve" xmlns:serif="http://www.serif.com/" style="fill-rule:evenodd;clip-rule:evenodd;stroke-linejoin:round;stroke-miterlimit:2;">
    <g transform="matrix(1,0,0,1,-9651,-4077)">
        <g id="tire-fitting" serif:id="tire fitting" transform="matrix(1,0,0,1,3469.95,2829)">
            <rect x="6181.05" y="1248" width="480.954" height="480.954" style="fill:none;"/>
            <g id="car-wash.svg" transform="matrix(0.802742,0,0,0.802742,6421.52,1488.48)">
                <g transform="matrix(1,0,0,1,-147.619,-147.619)">
                    <clipPath id="_clip1">
                        <rect x="0" y="0" width="295.238" height="295.238"/>
                    </clipPath>
                    <g clip-path="url(#_clip1)">
                        <g>
                            <g>
                                <g>
                                    <path d="M80.952,184.19L80.952,195.238L152.381,195.238L152.381,147.619L107.071,147.619L80.952,184.19ZM142.857,157.143L142.857,185.714L91.567,185.714L111.977,157.143L142.857,157.143Z" style="fill:rgb(1,0,38);fill-rule:nonzero;stroke:rgb(1,0,38);stroke-width:1px;"/>
                                    <path d="M157.143,147.619L157.143,195.238L228.572,195.238L228.572,184.19L202.453,147.619L157.143,147.619ZM166.667,185.714L166.667,157.143L197.548,157.143L217.958,185.714L166.667,185.714Z" style="fill:rgb(1,0,38);fill-rule:nonzero;stroke:rgb(1,0,38);stroke-width:1px;"/>
                                    <path d="M277.348,185.857L258.315,181.095C253.52,179.881 250.748,178.009 246.734,173.424L222.801,139.924C216.663,132.072 209.63,128.572 200.001,128.572L109.525,128.572C99.892,128.572 92.858,132.072 86.601,140.091L63.072,173.067C58.796,177.991 55.534,180.229 51.596,181.019L22.839,185.814C9.181,188.657 0,200.1 0,214.286L0,247.619C0,257.943 8.724,266.667 19.048,266.667L33.715,266.667C36.039,282.791 49.91,295.238 66.667,295.238L295.238,295.238L295.238,285.714L251.852,285.714C256.966,280.709 260.452,274.076 261.523,266.666L280.952,266.666C292.757,266.666 295.238,258.895 295.238,252.38L295.238,209.523C295.238,197.719 285.605,187.252 277.348,185.857ZM66.667,285.715C53.538,285.715 42.857,275.033 42.857,261.905C42.857,248.776 53.538,238.095 66.667,238.095C79.796,238.095 90.477,248.776 90.477,261.905C90.477,275.034 79.796,285.715 66.667,285.715ZM89.948,285.714C95.062,280.709 98.548,274.076 99.619,266.666L195.619,266.666C196.686,274.076 200.171,280.709 205.29,285.714L89.948,285.714ZM228.571,285.714C215.442,285.714 204.761,275.033 204.761,261.904C204.761,248.775 215.442,238.094 228.571,238.094C241.7,238.094 252.381,248.775 252.381,261.904C252.381,275.033 241.7,285.714 228.571,285.714ZM285.714,252.381C285.714,256.471 285.047,257.143 280.952,257.143L261.523,257.143C259.199,241.019 245.328,228.572 228.571,228.572C211.814,228.572 197.942,241.02 195.619,257.143L99.619,257.143C97.295,241.019 83.424,228.572 66.667,228.572C49.91,228.572 36.038,241.02 33.715,257.143L19.048,257.143C13.977,257.143 9.524,252.691 9.524,247.619L9.524,223.809L19.048,223.809L19.048,233.333L28.572,233.333L28.572,223.809C28.572,217.666 25.191,214.285 19.048,214.285L9.524,214.285C9.524,202.504 17.405,196.671 24.595,195.171L53.319,190.381C59.533,189.133 64.6,185.824 70.543,178.957L94.229,145.786C98.61,140.181 102.758,138.096 109.524,138.096L200,138.096C206.762,138.096 210.91,140.182 215.171,145.625L239.261,179.315C243.932,184.686 248.356,188.401 255.985,190.329L275.385,195.167C279.452,195.867 285.714,202.338 285.714,209.524L285.714,252.381Z" style="fill:rgb(1,0,38);fill-rule:nonzero;stroke:rgb(1,0,38);stroke-width:1px;"/>
                                    <rect x="138.095" y="204.762" width="14.286" height="9.524" style="fill:rgb(1,0,38);stroke:rgb(1,0,38);stroke-width:1px;"/>
                                    <path d="M66.667,247.619C58.791,247.619 52.381,254.029 52.381,261.905C52.381,269.781 58.791,276.191 66.667,276.191C74.543,276.191 80.953,269.781 80.953,261.905C80.952,254.029 74.543,247.619 66.667,247.619ZM66.667,266.667C64.043,266.667 61.905,264.534 61.905,261.905C61.905,259.276 64.043,257.143 66.667,257.143C69.291,257.143 71.429,259.276 71.429,261.905C71.429,264.534 69.29,266.667 66.667,266.667Z" style="fill:rgb(1,0,38);fill-rule:nonzero;stroke:rgb(1,0,38);stroke-width:1px;"/>
                                    <path d="M228.571,247.619C220.695,247.619 214.285,254.029 214.285,261.905C214.285,269.781 220.695,276.191 228.571,276.191C236.447,276.191 242.857,269.781 242.857,261.905C242.857,254.029 236.448,247.619 228.571,247.619ZM228.571,266.667C225.947,266.667 223.809,264.534 223.809,261.905C223.809,259.276 225.947,257.143 228.571,257.143C231.195,257.143 233.333,259.276 233.333,261.905C233.333,264.534 231.195,266.667 228.571,266.667Z" style="fill:rgb(1,0,38);fill-rule:nonzero;stroke:rgb(1,0,38);stroke-width:1px;"/>
                                    <rect x="23.81" y="285.714" width="9.524" height="9.524" style="fill:rgb(1,0,38);stroke:rgb(1,0,38);stroke-width:1px;"/>
                                    <rect x="4.762" y="285.714" width="9.524" height="9.524" style="fill:rgb(1,0,38);stroke:rgb(1,0,38);stroke-width:1px;"/>
                                    <rect x="61.905" y="47.619" width="9.524" height="71.429" style="fill:rgb(1,0,38);stroke:rgb(1,0,38);stroke-width:1px;"/>
                                    <rect x="28.571" y="47.619" width="9.524" height="90.476" style="fill:rgb(1,0,38);stroke:rgb(1,0,38);stroke-width:1px;"/>
                                    <rect x="228.571" y="47.619" width="9.524" height="90.476" style="fill:rgb(1,0,38);stroke:rgb(1,0,38);stroke-width:1px;"/>
                                    <rect x="261.905" y="47.619" width="9.524" height="90.476" style="fill:rgb(1,0,38);stroke:rgb(1,0,38);stroke-width:1px;"/>
                                    <rect x="95.238" y="47.619" width="9.524" height="71.429" style="fill:rgb(1,0,38);stroke:rgb(1,0,38);stroke-width:1px;"/>
                                    <rect x="128.571" y="66.667" width="9.524" height="52.381" style="fill:rgb(1,0,38);stroke:rgb(1,0,38);stroke-width:1px;"/>
                                    <rect x="161.905" y="47.619" width="9.524" height="52.381" style="fill:rgb(1,0,38);stroke:rgb(1,0,38);stroke-width:1px;"/>
                                    <rect x="195.238" y="47.619" width="9.524" height="71.429" style="fill:rgb(1,0,38);stroke:rgb(1,0,38);stroke-width:1px;"/>
                                    <path d="M273.81,14.286L214.286,14.286L214.286,0L204.762,0L204.762,14.286L90.476,14.286L90.476,0L80.952,0L80.952,14.286L21.429,14.286C9.614,14.286 0,23.9 0,35.714L0,42.857L295.238,42.857L295.238,35.714C295.238,23.9 285.624,14.286 273.81,14.286ZM10.519,33.333C12.357,28.571 16.557,23.809 21.429,23.809L273.81,23.809C278.681,23.809 282.881,28.571 284.72,33.333L10.519,33.333Z" style="fill:rgb(1,0,38);fill-rule:nonzero;stroke:rgb(1,0,38);stroke-width:1px;"/>
                                    <rect x="61.905" y="147.619" width="9.524" height="9.524" style="fill:rgb(1,0,38);stroke:rgb(1,0,38);stroke-width:1px;"/>
                                    <rect x="261.905" y="147.619" width="9.524" height="9.524" style="fill:rgb(1,0,38);stroke:rgb(1,0,38);stroke-width:1px;"/>
                                    <rect x="28.571" y="147.619" width="9.524" height="9.524" style="fill:rgb(1,0,38);stroke:rgb(1,0,38);stroke-width:1px;"/>
                                    <rect x="28.571" y="166.667" width="9.524" height="9.524" style="fill:rgb(1,0,38);stroke:rgb(1,0,38);stroke-width:1px;"/>
                                    <rect x="261.905" y="166.667" width="9.524" height="9.524" style="fill:rgb(1,0,38);stroke:rgb(1,0,38);stroke-width:1px;"/>
                                    <rect x="161.905" y="109.524" width="9.524" height="9.524" style="fill:rgb(1,0,38);stroke:rgb(1,0,38);stroke-width:1px;"/>
                                    <rect x="61.905" y="128.571" width="9.524" height="9.524" style="fill:rgb(1,0,38);stroke:rgb(1,0,38);stroke-width:1px;"/>
                                    <rect x="0" y="171.429" width="9.524" height="9.524" style="fill:rgb(1,0,38);stroke:rgb(1,0,38);stroke-width:1px;"/>
                                    <rect x="285.714" y="171.429" width="9.524" height="9.524" style="fill:rgb(1,0,38);stroke:rgb(1,0,38);stroke-width:1px;"/>
                                    <rect x="128.571" y="47.619" width="9.524" height="9.524" style="fill:rgb(1,0,38);stroke:rgb(1,0,38);stroke-width:1px;"/>
                                </g>
                            </g>
                        </g>
                    </g>
                </g>
            </g>
        </g>
    </g>
</svg>
