<svg xmlns="http://www.w3.org/2000/svg" xmlns:xlink="http://www.w3.org/1999/xlink" width="55" zoomAndPan="magnify" viewBox="0 0 41.25 41.250001" height="55" preserveAspectRatio="xMidYMid meet" version="1.0"><defs><clipPath id="90a3a15357"><path d="M 0.988281 0 L 39.292969 0 L 39.292969 40.511719 L 0.988281 40.511719 Z M 0.988281 0 " clip-rule="nonzero"/></clipPath></defs><g clip-path="url(#90a3a15357)"><path fill="#ffffff" d="M 22.105469 9.148438 L 25.71875 9.414062 C 25.933594 9.433594 26.109375 9.566406 26.175781 9.773438 C 26.242188 9.976562 26.179688 10.1875 26.015625 10.328125 L 23.25 12.667969 L 24.113281 16.191406 C 24.164062 16.398438 24.085938 16.605469 23.914062 16.730469 C 23.738281 16.859375 23.519531 16.867188 23.335938 16.753906 L 20.253906 14.84375 L 17.171875 16.753906 C 16.988281 16.867188 16.769531 16.859375 16.597656 16.730469 C 16.421875 16.605469 16.347656 16.398438 16.398438 16.191406 L 17.261719 12.667969 L 14.492188 10.328125 C 14.328125 10.1875 14.269531 9.976562 14.335938 9.773438 C 14.402344 9.566406 14.574219 9.433594 14.789062 9.414062 L 18.402344 9.148438 L 19.773438 5.792969 C 19.855469 5.59375 20.039062 5.472656 20.253906 5.472656 C 20.46875 5.472656 20.652344 5.59375 20.734375 5.792969 Z M 17.363281 36.40625 C 17.023438 37.011719 16.6875 37.625 16.328125 38.199219 C 16.199219 38.433594 16.175781 38.703125 16.242188 38.945312 C 16.308594 39.195312 16.46875 39.417969 16.707031 39.558594 C 16.945312 39.695312 17.21875 39.722656 17.46875 39.65625 C 17.71875 39.585938 17.945312 39.425781 18.082031 39.191406 L 18.210938 38.96875 L 18.222656 38.949219 L 18.230469 38.933594 L 19.273438 37.125 C 19.410156 36.886719 19.4375 36.609375 19.371094 36.359375 C 19.308594 36.121094 19.160156 35.90625 18.941406 35.769531 C 18.917969 35.757812 18.894531 35.742188 18.871094 35.730469 C 18.640625 35.609375 18.378906 35.585938 18.140625 35.652344 C 17.890625 35.71875 17.667969 35.878906 17.53125 36.117188 Z M 15.179688 34.035156 C 15.320312 33.808594 15.535156 33.65625 15.777344 33.59375 C 16.03125 33.527344 16.304688 33.554688 16.542969 33.691406 L 16.546875 33.691406 C 16.78125 33.828125 16.941406 34.054688 17.007812 34.300781 C 17.074219 34.550781 17.046875 34.828125 16.910156 35.066406 L 15.40625 37.675781 C 15.265625 37.898438 15.050781 38.050781 14.804688 38.117188 C 14.554688 38.183594 14.28125 38.15625 14.042969 38.019531 L 14.039062 38.015625 C 13.804688 37.878906 13.644531 37.65625 13.578125 37.40625 C 13.511719 37.15625 13.535156 36.882812 13.675781 36.644531 Z M 12.589844 31.785156 L 10.828125 34.832031 C 10.671875 35.105469 10.640625 35.417969 10.71875 35.707031 C 10.789062 35.980469 10.964844 36.226562 11.21875 36.386719 C 11.238281 36.398438 11.257812 36.410156 11.277344 36.421875 C 11.546875 36.566406 11.851562 36.59375 12.128906 36.519531 C 12.414062 36.441406 12.671875 36.257812 12.828125 35.984375 L 13.261719 35.238281 C 13.589844 34.652344 13.910156 34.0625 14.261719 33.503906 L 14.589844 32.9375 C 14.746094 32.664062 14.777344 32.347656 14.699219 32.0625 C 14.625 31.785156 14.449219 31.535156 14.191406 31.375 C 14.171875 31.367188 14.148438 31.355469 14.132812 31.339844 C 13.867188 31.199219 13.566406 31.175781 13.289062 31.25 C 13.003906 31.324219 12.746094 31.507812 12.589844 31.785156 Z M 9.910156 34.296875 L 9.882812 34.347656 L 9.820312 34.453125 C 9.683594 34.675781 9.464844 34.828125 9.222656 34.894531 C 8.984375 34.957031 8.722656 34.9375 8.492188 34.816406 C 8.472656 34.800781 8.449219 34.789062 8.425781 34.777344 C 8.207031 34.636719 8.058594 34.421875 7.996094 34.183594 C 7.925781 33.933594 7.953125 33.660156 8.09375 33.421875 L 8.574219 32.589844 L 8.578125 32.578125 L 9.585938 30.832031 C 9.726562 30.597656 9.949219 30.4375 10.195312 30.371094 C 10.433594 30.304688 10.695312 30.328125 10.925781 30.449219 C 10.949219 30.464844 10.96875 30.476562 10.992188 30.488281 C 11.214844 30.625 11.363281 30.839844 11.425781 31.078125 C 11.492188 31.324219 11.464844 31.59375 11.335938 31.832031 L 11.328125 31.839844 Z M 31.65625 21.308594 L 35.480469 28.898438 L 35.484375 28.910156 L 35.636719 29.210938 L 39.519531 27.253906 L 34.714844 17.707031 L 30.832031 19.664062 L 31.144531 20.289062 Z M 18.71875 20.261719 C 18.738281 20.25 18.753906 20.234375 18.769531 20.21875 L 19.113281 19.925781 C 19.21875 19.847656 19.335938 19.792969 19.464844 19.753906 C 19.601562 19.714844 19.753906 19.695312 19.917969 19.699219 L 23.542969 19.730469 C 23.660156 19.734375 23.789062 19.765625 23.921875 19.828125 C 24.074219 19.894531 24.238281 20 24.410156 20.144531 C 24.429688 20.160156 24.449219 20.171875 24.46875 20.183594 L 26.214844 21.375 C 26.453125 21.527344 26.707031 21.632812 26.980469 21.691406 C 27.246094 21.746094 27.527344 21.753906 27.820312 21.71875 L 27.871094 21.710938 L 30.382812 21.140625 L 34.28125 28.878906 C 33.695312 29.160156 33.1875 29.488281 32.757812 29.855469 C 32.339844 30.214844 31.992188 30.613281 31.714844 31.050781 L 19.328125 23.902344 C 19.152344 23.800781 18.9375 23.8125 18.777344 23.917969 C 18.402344 24.144531 18.058594 24.335938 17.746094 24.488281 C 17.449219 24.636719 17.191406 24.742188 16.976562 24.8125 L 16.957031 24.816406 C 16.441406 25 15.957031 25.117188 15.503906 25.15625 C 15.070312 25.199219 14.664062 25.175781 14.273438 25.09375 C 14.214844 25.066406 14.15625 25.039062 14.101562 25.011719 C 13.910156 24.910156 13.792969 24.8125 13.746094 24.722656 C 13.722656 24.671875 13.726562 24.605469 13.757812 24.523438 Z M 10.171875 21.035156 C 11.023438 21.449219 11.828125 21.738281 12.644531 21.757812 C 13.648438 21.785156 14.617188 21.417969 15.605469 20.410156 C 15.847656 20.226562 16.066406 20.089844 16.257812 20.003906 C 16.390625 19.945312 16.503906 19.910156 16.597656 19.902344 L 17.289062 20.089844 L 12.988281 23.78125 C 12.933594 23.824219 12.886719 23.882812 12.851562 23.949219 C 12.824219 24.003906 12.796875 24.058594 12.777344 24.109375 C 12.621094 24.492188 12.625 24.855469 12.792969 25.191406 C 12.941406 25.492188 13.214844 25.746094 13.605469 25.949219 C 13.691406 25.996094 13.785156 26.039062 13.894531 26.085938 C 13.925781 26.097656 13.960938 26.113281 13.996094 26.121094 C 14.503906 26.234375 15.039062 26.265625 15.597656 26.214844 C 16.152344 26.164062 16.722656 26.03125 17.3125 25.820312 C 17.574219 25.738281 17.875 25.613281 18.214844 25.445312 C 18.472656 25.316406 18.757812 25.160156 19.070312 24.976562 L 31.675781 32.253906 C 31.921875 32.40625 32.089844 32.644531 32.160156 32.910156 C 32.230469 33.175781 32.207031 33.464844 32.066406 33.71875 L 32.039062 33.773438 C 31.886719 34.019531 31.648438 34.183594 31.386719 34.253906 C 31.121094 34.328125 30.832031 34.300781 30.578125 34.164062 C 30.554688 34.148438 30.53125 34.136719 30.503906 34.125 L 27.214844 32.222656 C 26.960938 32.078125 26.636719 32.167969 26.492188 32.421875 C 26.347656 32.675781 26.433594 33 26.6875 33.144531 L 28.953125 34.453125 C 29.195312 34.605469 29.359375 34.839844 29.429688 35.101562 C 29.503906 35.375 29.472656 35.675781 29.324219 35.9375 C 29.171875 36.199219 28.925781 36.375 28.652344 36.449219 C 28.378906 36.523438 28.082031 36.492188 27.820312 36.339844 L 26.347656 35.492188 L 24.488281 34.417969 L 24.476562 34.410156 C 24.222656 34.265625 23.894531 34.351562 23.75 34.605469 C 23.601562 34.859375 23.6875 35.183594 23.941406 35.332031 L 23.953125 35.335938 L 25.8125 36.410156 L 25.824219 36.417969 C 26.082031 36.570312 26.253906 36.8125 26.324219 37.078125 C 26.398438 37.351562 26.367188 37.652344 26.21875 37.914062 C 26.066406 38.175781 25.820312 38.351562 25.546875 38.425781 C 25.273438 38.496094 24.972656 38.46875 24.714844 38.316406 L 22.042969 36.773438 C 22.03125 36.769531 22.019531 36.761719 22.007812 36.757812 L 21.761719 36.613281 C 21.507812 36.46875 21.183594 36.554688 21.039062 36.808594 C 20.890625 37.0625 20.980469 37.390625 21.234375 37.535156 L 21.484375 37.679688 L 21.507812 37.695312 L 22.855469 38.472656 C 23.09375 38.621094 23.253906 38.855469 23.324219 39.117188 C 23.398438 39.390625 23.367188 39.691406 23.21875 39.949219 L 23.214844 39.953125 C 23.066406 40.214844 22.820312 40.390625 22.546875 40.460938 C 22.273438 40.535156 21.972656 40.503906 21.710938 40.355469 C 20.945312 39.929688 20.167969 39.472656 19.402344 39.023438 L 20.195312 37.652344 C 20.480469 37.160156 20.535156 36.59375 20.398438 36.085938 C 20.265625 35.578125 19.933594 35.121094 19.445312 34.835938 L 19.433594 34.828125 C 19.019531 34.585938 18.550781 34.507812 18.105469 34.574219 C 18.109375 34.386719 18.085938 34.203125 18.035156 34.027344 C 17.902344 33.535156 17.589844 33.085938 17.121094 32.800781 C 17.089844 32.777344 17.058594 32.757812 17.023438 32.742188 C 16.636719 32.535156 16.207031 32.460938 15.800781 32.507812 C 15.816406 32.265625 15.792969 32.019531 15.730469 31.785156 C 15.582031 31.238281 15.226562 30.746094 14.699219 30.441406 C 14.167969 30.136719 13.5625 30.074219 13.015625 30.21875 C 12.78125 30.28125 12.558594 30.382812 12.355469 30.519531 C 12.191406 30.140625 11.914062 29.808594 11.539062 29.578125 C 11.507812 29.554688 11.476562 29.535156 11.4375 29.519531 C 10.957031 29.257812 10.414062 29.210938 9.921875 29.339844 C 9.421875 29.476562 8.972656 29.792969 8.683594 30.269531 C 8.671875 30.289062 8.65625 30.3125 8.644531 30.335938 L 8.328125 30.886719 C 7.925781 29.890625 7.210938 29.464844 6.203125 28.917969 Z M 5.792969 17.695312 L 0.988281 27.242188 L 4.871094 29.195312 L 5.0625 28.816406 C 5.339844 28.253906 6.894531 25.089844 9.453125 20.070312 L 9.457031 20.066406 C 9.472656 20.03125 9.492188 20.003906 9.515625 19.976562 L 9.679688 19.648438 Z M 24.839844 6.359375 L 26.832031 4.324219 C 27.039062 4.113281 27.035156 3.777344 26.824219 3.570312 C 26.617188 3.367188 26.28125 3.367188 26.074219 3.578125 L 24.082031 5.613281 C 23.878906 5.820312 23.878906 6.15625 24.089844 6.363281 C 24.300781 6.570312 24.636719 6.566406 24.839844 6.359375 Z M 16.425781 5.613281 L 14.433594 3.578125 C 14.230469 3.367188 13.894531 3.367188 13.683594 3.570312 C 13.472656 3.777344 13.472656 4.113281 13.675781 4.324219 L 15.667969 6.359375 C 15.875 6.566406 16.210938 6.570312 16.417969 6.363281 C 16.628906 6.15625 16.632812 5.820312 16.425781 5.613281 Z M 20.789062 3.402344 C 20.789062 3.695312 20.546875 3.933594 20.253906 3.933594 C 19.960938 3.933594 19.722656 3.695312 19.722656 3.402344 L 19.722656 0.554688 C 19.722656 0.261719 19.960938 0.0234375 20.253906 0.0234375 C 20.546875 0.0234375 20.789062 0.261719 20.789062 0.554688 Z M 20.789062 3.402344 " fill-opacity="1" fill-rule="evenodd"/></g></svg>